<?xml version="1.0" encoding="iso-8859-1"?>
<!-- Generator: Adobe Illustrator 19.0.0, SVG Export Plug-In . SVG Version: 6.00 Build 0)  -->
<svg version="1.1" id="Layer_1" xmlns="http://www.w3.org/2000/svg" xmlns:xlink="http://www.w3.org/1999/xlink" x="0px" y="0px"
	 viewBox="0 0 512.002 512.002" style="enable-background:new 0 0 512.002 512.002;" xml:space="preserve">
<g>
	<path style="fill:#000001;" d="M473.016,301.035L358.125,415.922L198.164,255.96c36.828-44.009,34.582-109.848-6.752-151.182
		c-21.178-21.178-49.336-32.841-79.285-32.841c-29.951,0-58.107,11.663-79.285,32.841C11.662,125.956,0,154.113,0,184.064
		c0,29.95,11.662,58.108,32.842,79.287c21.178,21.177,49.334,32.84,79.285,32.84c12.318,0,24.332-1.978,35.684-5.773l36.924,36.925
		c1.953,1.952,4.512,2.929,7.07,2.929c2.561,0,5.119-0.977,7.072-2.929c3.904-3.905,3.904-10.237,0-14.143l-31.506-31.507
		c5.852-3.322,11.422-7.197,16.654-11.586l149.957,149.958h-92.731c-5.523,0-10,4.478-10,10s4.477,10,10,10H475
		c5.523,0,10-4.478,10-10s-4.477-10-10-10h-92.732l104.891-104.887c3.904-3.905,3.904-10.237,0-14.142
		C483.254,297.132,476.924,297.131,473.016,301.035z M202.168,164.822c-18.514-0.515-36.117-8.024-49.447-21.353
		c-13.35-13.352-20.859-30.975-21.355-49.51c17.266,3.65,33.133,12.19,45.904,24.962C190.316,131.967,198.6,147.99,202.168,164.822z
		 M22.02,203.301c18.537,0.496,36.16,8.006,49.512,21.359c13.342,13.343,20.855,30.972,21.355,49.509
		c-17.266-3.65-33.131-12.189-45.902-24.961C34.211,236.435,25.67,220.567,22.02,203.301z M152.555,266.875l-6.057-6.057
		c-3.906-3.903-10.236-3.905-14.143,0c-3.637,3.636-3.883,9.371-0.75,13.297c-6.08,1.303-12.332,2.003-18.689,2.056
		c0.014-24.555-9.625-48.037-27.244-65.653c-17.627-17.629-41.092-27.263-65.652-27.245c0.203-24.312,9.75-47.14,26.965-64.353
		c17.213-17.213,40.041-26.761,64.352-26.964c-0.018,24.554,9.615,48.025,27.242,65.654c17.605,17.604,41.063,27.243,65.596,27.243
		c0.006,0,0.01-0.001,0.016-0.001c-0.172,20.189-6.916,40.325-20.24,56.893l-28.502-28.502c-3.904-3.904-10.236-3.905-14.143,0
		c-3.904,3.905-3.904,10.237,0,14.142l28.504,28.504C164.441,260.218,158.656,263.89,152.555,266.875z"/>
	<path style="fill:#000001;" d="M509.094,279.139c-3.893-3.916-10.227-3.935-14.141-0.042l-0.494,0.49
		c-3.916,3.894-3.936,10.225-0.041,14.142c1.953,1.966,4.522,2.95,7.092,2.95c2.549,0,5.1-0.969,7.049-2.908l0.494-0.49
		C512.969,289.387,512.988,283.056,509.094,279.139z"/>
	<path style="fill:#000001;" d="M219.209,333.536c-3.895-3.916-10.225-3.935-14.143-0.041c-3.916,3.895-3.934,10.226-0.041,14.143
		l0.168,0.169c1.955,1.966,4.523,2.949,7.092,2.949c2.551,0,5.1-0.969,7.051-2.908c3.916-3.895,3.936-10.226,0.041-14.143
		L219.209,333.536z"/>
	<path style="fill:#000001;" d="M290.545,317.526c1.953,1.952,4.512,2.929,7.07,2.929s5.119-0.977,7.072-2.929
		c3.904-3.905,3.904-10.237,0-14.143l-45.935-45.938c-3.906-3.903-10.236-3.904-14.143,0c-3.906,3.905-3.906,10.237,0,14.143
		L290.545,317.526z"/>
</g>
<g>
</g>
<g>
</g>
<g>
</g>
<g>
</g>
<g>
</g>
<g>
</g>
<g>
</g>
<g>
</g>
<g>
</g>
<g>
</g>
<g>
</g>
<g>
</g>
<g>
</g>
<g>
</g>
<g>
</g>
</svg>
