<svg xmlns="http://www.w3.org/2000/svg" height="511pt" version="1.1" viewBox="-53 1 511 511.999" width="511pt">
<g id="surface1">
<path d="M 404.5 98 C 404.5 74.839844 385.660156 56 362.5 56 L 260.5 56 L 260.5 37 C 260.5 16.597656 243.902344 0 223.5 0 L 181.5 0 C 161.097656 0 144.5 16.597656 144.5 37 L 144.5 56 L 42.5 56 C 19.339844 56 0.5 74.839844 0.5 98 C 0.5 115.023438 10.683594 129.699219 25.273438 136.289062 L 25.273438 460.71875 C 25.273438 488.996094 48.277344 512 76.550781 512 L 328.445312 512 C 356.71875 512 379.722656 488.996094 379.722656 460.71875 L 379.722656 274.332031 C 379.722656 268.808594 375.246094 264.332031 369.722656 264.332031 C 364.203125 264.332031 359.722656 268.808594 359.722656 274.332031 L 359.722656 460.71875 C 359.722656 477.96875 345.691406 492 328.445312 492 L 76.554688 492 C 59.304688 492 45.277344 477.96875 45.277344 460.71875 L 45.277344 140.058594 L 90.539062 140.058594 L 198.125 247.648438 C 200.078125 249.601562 202.636719 250.574219 205.195312 250.574219 C 207.753906 250.574219 210.3125 249.601562 212.261719 247.652344 L 263.332031 196.632812 L 271.875 205.175781 C 273.828125 207.128906 276.386719 208.105469 278.949219 208.105469 C 281.507812 208.105469 284.066406 207.128906 286.019531 205.175781 L 351.132812 140.0625 L 359.722656 140.0625 L 359.722656 198.105469 C 359.722656 203.628906 364.203125 208.105469 369.722656 208.105469 C 375.246094 208.105469 379.722656 203.628906 379.722656 198.105469 L 379.722656 136.289062 C 394.316406 129.699219 404.5 115.023438 404.5 98 Z M 164.5 37 C 164.5 27.625 172.125 20 181.5 20 L 223.5 20 C 232.875 20 240.5 27.625 240.5 37 L 240.5 56 L 164.5 56 Z M 205.199219 226.4375 L 118.820312 140.0625 L 206.761719 140.0625 L 249.191406 182.488281 Z M 278.949219 183.960938 L 235.046875 140.058594 L 322.847656 140.058594 Z M 362.5 120 L 42.5 120 C 30.367188 120 20.5 110.132812 20.5 98 C 20.5 85.867188 30.367188 76 42.5 76 L 362.5 76 C 374.628906 76 384.5 85.867188 384.5 98 C 384.5 110.132812 374.628906 120 362.5 120 Z M 362.5 120 " style=" stroke:none;fill-rule:nonzero;fill:rgb(0%,0%,0%);fill-opacity:1;" />
<path d="M 362.648438 225.929688 C 360.789062 227.789062 359.71875 230.371094 359.71875 233 C 359.71875 235.628906 360.789062 238.210938 362.648438 240.070312 C 364.507812 241.929688 367.089844 243 369.726562 243 C 372.359375 243 374.9375 241.929688 376.796875 240.070312 C 378.660156 238.210938 379.71875 235.628906 379.71875 233 C 379.71875 230.371094 378.660156 227.789062 376.796875 225.929688 C 374.9375 224.070312 372.359375 223 369.726562 223 C 367.089844 223 364.507812 224.070312 362.648438 225.929688 Z M 362.648438 225.929688 " style=" stroke:none;fill-rule:nonzero;fill:rgb(0%,0%,0%);fill-opacity:1;" />
<path d="M 284.960938 233 L 284.960938 437.085938 C 284.960938 442.609375 289.4375 447.085938 294.960938 447.085938 C 300.480469 447.085938 304.960938 442.609375 304.960938 437.085938 L 304.960938 233 C 304.960938 227.476562 300.480469 223 294.960938 223 C 289.4375 223 284.960938 227.476562 284.960938 233 Z M 284.960938 233 " style=" stroke:none;fill-rule:nonzero;fill:rgb(0%,0%,0%);fill-opacity:1;" />
<path d="M 192.5 338.332031 L 192.5 437.085938 C 192.5 442.609375 196.976562 447.085938 202.5 447.085938 C 208.023438 447.085938 212.5 442.609375 212.5 437.085938 L 212.5 338.332031 C 212.5 332.808594 208.023438 328.332031 202.5 328.332031 C 196.976562 328.332031 192.5 332.8125 192.5 338.332031 Z M 192.5 338.332031 " style=" stroke:none;fill-rule:nonzero;fill:rgb(0%,0%,0%);fill-opacity:1;" />
<path d="M 100.039062 208 L 100.039062 437.085938 C 100.039062 442.609375 104.515625 447.085938 110.039062 447.085938 C 115.5625 447.085938 120.039062 442.609375 120.039062 437.085938 L 120.039062 208 C 120.039062 202.476562 115.5625 198 110.039062 198 C 104.515625 198 100.039062 202.476562 100.039062 208 Z M 100.039062 208 " style=" stroke:none;fill-rule:nonzero;fill:rgb(0%,0%,0%);fill-opacity:1;" />
<path d="M 209.570312 285.261719 C 207.710938 283.398438 205.128906 282.328125 202.5 282.328125 C 199.871094 282.328125 197.289062 283.398438 195.429688 285.261719 C 193.570312 287.121094 192.5 289.699219 192.5 292.328125 C 192.5 294.96875 193.570312 297.539062 195.429688 299.410156 C 197.289062 301.269531 199.871094 302.328125 202.5 302.328125 C 205.128906 302.328125 207.710938 301.269531 209.570312 299.410156 C 211.429688 297.539062 212.5 294.96875 212.5 292.328125 C 212.5 289.699219 211.429688 287.121094 209.570312 285.261719 Z M 209.570312 285.261719 " style=" stroke:none;fill-rule:nonzero;fill:rgb(0%,0%,0%);fill-opacity:1;" />
</g>
</svg>