<?xml version="1.0" encoding="iso-8859-1"?>
<!-- Generator: Adobe Illustrator 19.0.0, SVG Export Plug-In . SVG Version: 6.00 Build 0)  -->
<svg version="1.1" id="Layer_1" xmlns="http://www.w3.org/2000/svg" xmlns:xlink="http://www.w3.org/1999/xlink" x="0px" y="0px"
	 viewBox="0 0 512.001 512.001" style="enable-background:new 0 0 512.001 512.001;" xml:space="preserve">
<g>
	<path style="fill:#000001;" d="M511.997,258.755c0.027-7.619-4.242-13.075-10.195-16.462c-0.542-9.646-1.656-19.276-3.318-28.777
		c1.398-0.984,2.691-2.168,3.787-3.598c3.022-3.943,3.951-8.921,2.62-14.018c-0.035-0.133-0.073-0.266-0.112-0.397
		c-11.1-45.656-34.516-87.335-67.741-120.561c-33.344-33.345-75.2-56.809-121.043-67.859c-1.475-0.376-2.95-0.567-4.389-0.567
		c-5.883,0-10.219,2.785-13.149,6.996c-9.504-1.661-19.134-2.774-28.775-3.316c-3.46-6.063-9.065-10.399-16.916-10.186
		c-33.215,0.419-65.579,7.173-96.19,20.074c-30.639,12.913-58.095,31.38-81.604,54.89c-23.509,23.509-41.977,50.963-54.889,81.602
		C7.182,187.186,0.427,219.549,0.007,252.763c-0.211,7.871,4.109,13.485,10.188,16.943c0.538,9.633,1.652,19.265,3.316,28.781
		c-1.396,0.984-2.688,2.167-3.783,3.597c-3.021,3.943-3.953,8.921-2.621,14.018c0.057,0.218,0.121,0.432,0.191,0.643
		c11.122,45.544,34.511,87.122,67.673,120.284c33.161,33.161,74.735,56.549,120.28,67.671c0.213,0.071,0.428,0.135,0.645,0.192
		c1.51,0.394,3.021,0.594,4.494,0.594c0.002,0,0.001,0,0.002,0c5.881,0,10.216-2.784,13.147-6.994
		c9.514,1.664,19.146,2.776,28.782,3.314c3.383,5.92,8.817,10.19,16.397,10.192c0.003,0,0.005,0,0.007,0
		c0.207,0,0.413-0.003,0.624-0.01c0.214-0.007,0.426-0.021,0.637-0.041c32.954-0.51,65.062-7.259,95.445-20.065
		c30.637-12.913,58.093-31.38,81.604-54.889c23.509-23.509,41.977-50.964,54.888-81.602c12.912-30.637,19.666-63.028,20.074-96.273
		C512.001,258.997,512.001,258.877,511.997,258.755z M238.323,481.493c-6.661-0.523-13.31-1.341-19.899-2.45
		c3.67-68.047,32.145-131.946,80.41-180.209c48.26-48.264,112.16-76.739,180.205-80.409c1.108,6.583,1.926,13.231,2.449,19.898
		c-63.66,3.09-123.352,29.487-168.514,74.653C267.806,358.143,241.411,417.835,238.323,481.493z M32.957,293.576
		c-1.107-6.591-1.926-13.239-2.449-19.899c63.658-3.088,123.352-29.485,168.52-74.653c45.166-45.167,71.564-104.858,74.651-168.515
		c6.666,0.525,13.314,1.344,19.9,2.452c-3.671,68.046-32.146,131.944-80.41,180.205C164.903,261.432,101.001,289.907,32.957,293.576
		z M89.115,89.116c43.619-43.622,101.549-68.142,163.202-69.097c0.328,0.602,0.66,1.524,0.936,2.546
		c0.006,0.022,0.012,0.044,0.019,0.065c0.28,1.056,0.501,2.215,0.592,3.242c-1.991,60.052-26.477,116.507-68.98,159.01
		c-42.512,42.511-98.971,66.998-159.036,68.983c-0.912-0.078-2.022-0.281-3.068-0.551c-0.127-0.038-0.256-0.073-0.385-0.106
		c-0.938-0.261-1.801-0.569-2.377-0.886C20.973,190.669,45.494,132.736,89.115,89.116z M89.115,422.886
		c-30.056-30.055-51.402-67.608-61.858-108.763c1.071-0.221,2.31-0.378,3.327-0.397c0.12-0.001,0.239-0.004,0.359-0.009
		c8.756-0.381,17.448-1.159,26.061-2.296c6.791,24.454,17.893,47.184,33.095,67.674c1.962,2.645,4.98,4.042,8.039,4.042
		c2.07,0,4.16-0.641,5.95-1.97c4.436-3.29,5.363-9.554,2.072-13.99c-13.305-17.932-23.135-37.763-29.313-59.07
		c56.696-11.452,108.968-39.304,150.462-80.797c52.492-52.49,83.18-122.227,86.407-196.365c0.005-0.121,0.007-0.19,0.009-0.31
		c0.019-1.056,0.18-2.324,0.404-3.41c41.158,10.457,78.709,31.804,108.763,61.859c30.06,30.059,51.409,67.622,61.864,108.791
		c-1.074,0.222-2.32,0.381-3.344,0.4c-0.119,0.001-0.239,0.004-0.359,0.009c-8.756,0.381-17.448,1.159-26.06,2.296
		c-6.789-24.452-17.892-47.183-33.096-67.675c-3.292-4.435-9.554-5.362-13.99-2.072c-4.436,3.291-5.363,9.555-2.072,13.991
		c13.308,17.934,23.137,37.765,29.314,59.07c-56.698,11.451-108.97,39.303-150.46,80.797
		c-52.492,52.49-83.18,122.228-86.408,196.365c-0.004,0.12-0.007,0.189-0.008,0.31c-0.02,1.045-0.178,2.298-0.398,3.375
		C156.719,474.286,119.17,452.94,89.115,422.886z M422.894,422.85c-43.629,43.627-101.571,68.149-163.23,69.099
		c-0.322-0.602-0.646-1.509-0.916-2.512c-0.008-0.026-0.016-0.053-0.022-0.079c-0.279-1.053-0.497-2.205-0.589-3.228
		c1.992-60.054,26.478-116.508,68.982-159.011c42.496-42.501,98.945-66.986,158.999-68.982c2.086,0.19,4.646,0.879,5.871,1.549
		C491.023,321.322,466.503,379.241,422.894,422.85z"/>
	<path style="fill:#000001;" d="M123.701,387.563c-3.904-3.905-10.236-3.905-14.144,0c-3.904,3.905-3.904,10.237,0,14.144
		l0.426,0.424c1.947,1.917,4.48,2.873,7.014,2.873c2.586,0,5.17-0.997,7.127-2.985c3.875-3.936,3.824-10.268-0.111-14.143
		L123.701,387.563z"/>
	<path style="fill:#000001;" d="M388.242,124.383c1.957,1.989,4.541,2.985,7.127,2.985c2.533,0,5.067-0.956,7.015-2.873
		c3.936-3.874,3.986-10.206,0.112-14.143l-0.365-0.367c-3.873-3.936-10.205-3.987-14.143-0.114
		c-3.936,3.874-3.987,10.205-0.114,14.143L388.242,124.383z"/>
</g>
<g>
</g>
<g>
</g>
<g>
</g>
<g>
</g>
<g>
</g>
<g>
</g>
<g>
</g>
<g>
</g>
<g>
</g>
<g>
</g>
<g>
</g>
<g>
</g>
<g>
</g>
<g>
</g>
<g>
</g>
</svg>
